<svg width="922" height="743" viewBox="0 0 922 743" fill="none" xmlns="http://www.w3.org/2000/svg">
<circle cx="84.7716" cy="120.603" r="13.109" fill="#FFE898"/>
<circle cx="120.603" cy="120.603" r="13.109" fill="#FFE898"/>
<circle cx="120.603" cy="84.7715" r="13.109" fill="#FFE898"/>
<circle cx="120.603" cy="263.928" r="13.109" fill="#FFE898"/>
<circle cx="156.434" cy="192.265" r="13.109" fill="#FFE898"/>
<circle cx="192.266" cy="335.591" r="13.109" fill="#FFE898"/>
<circle cx="192.266" cy="84.7715" r="13.109" fill="#FFE898"/>
<circle cx="192.266" cy="263.928" r="13.109" fill="#FFE898"/>
<circle cx="228.097" cy="120.603" r="13.109" fill="#FFE898"/>
<circle cx="228.097" cy="263.928" r="13.109" fill="#FFE898"/>
<circle cx="228.097" cy="192.265" r="13.109" fill="#FFE898"/>
<circle cx="263.928" cy="156.434" r="13.109" fill="#FFE898"/>
<circle cx="263.928" cy="299.759" r="13.109" fill="#FFE898"/>
<circle cx="263.928" cy="84.7715" r="13.109" fill="#FFE898"/>
<circle cx="263.928" cy="371.422" r="13.109" fill="#FFE898"/>
<circle cx="299.759" cy="299.759" r="13.109" fill="#FFE898"/>
<circle cx="335.59" cy="263.928" r="13.109" fill="#FFE898"/>
<circle cx="335.59" cy="443.084" r="13.109" fill="#FFE898"/>
<circle cx="335.59" cy="407.253" r="13.109" fill="#FFE898"/>
<circle cx="335.59" cy="192.265" r="13.109" fill="#FFE898"/>
<circle cx="371.422" cy="299.759" r="13.109" fill="#FFE898"/>
<circle cx="371.422" cy="84.7715" r="13.109" fill="#FFE898"/>
<circle cx="371.422" cy="371.422" r="13.109" fill="#FFE898"/>
<circle cx="407.253" cy="156.434" r="13.109" fill="#FFE898"/>
<circle cx="407.253" cy="478.916" r="13.109" fill="#FFE898"/>
<circle cx="407.253" cy="263.928" r="13.109" fill="#FFE898"/>
<circle cx="443.084" cy="156.434" r="13.109" fill="#FFE898"/>
<circle cx="443.084" cy="335.591" r="13.109" fill="#FFE898"/>
<circle cx="443.084" cy="84.7715" r="13.109" fill="#FFE898"/>
<circle cx="443.084" cy="263.928" r="13.109" fill="#FFE898"/>
<circle cx="443.084" cy="228.097" r="13.109" fill="#FFE898"/>
<circle cx="443.084" cy="407.253" r="13.109" fill="#FFE898"/>
<circle cx="443.084" cy="192.265" r="13.109" fill="#FFE898"/>
<circle cx="478.916" cy="120.603" r="13.109" fill="#FFE898"/>
<circle cx="478.916" cy="299.759" r="13.109" fill="#FFE898"/>
<circle cx="478.916" cy="84.7715" r="13.109" fill="#FFE898"/>
<circle cx="478.916" cy="407.253" r="13.109" fill="#FFE898"/>
<circle cx="478.916" cy="550.578" r="13.109" fill="#FFE898"/>
<circle cx="514.747" cy="156.434" r="13.109" fill="#FFE898"/>
<circle cx="514.747" cy="335.591" r="13.109" fill="#FFE898"/>
<circle cx="514.747" cy="478.916" r="13.109" fill="#FFE898"/>
<circle cx="514.747" cy="263.928" r="13.109" fill="#FFE898"/>
<circle cx="514.747" cy="228.097" r="13.109" fill="#FFE898"/>
<circle cx="514.747" cy="371.422" r="13.109" fill="#FFE898"/>
<circle cx="550.578" cy="514.747" r="13.109" fill="#FFE898"/>
<circle cx="550.578" cy="443.084" r="13.109" fill="#FFE898"/>
<circle cx="550.578" cy="48.9403" r="13.109" fill="#FFE898"/>
<circle cx="550.578" cy="228.097" r="13.109" fill="#FFE898"/>
<circle cx="550.578" cy="407.253" r="13.109" fill="#FFE898"/>
<circle cx="550.578" cy="13.109" r="13.109" fill="#FFE898"/>
<circle cx="586.41" cy="84.7715" r="13.109" fill="#FFE898"/>
<circle cx="586.41" cy="263.928" r="13.109" fill="#FFE898"/>
<circle cx="586.41" cy="192.265" r="13.109" fill="#FFE898"/>
<circle cx="586.41" cy="371.422" r="13.109" fill="#FFE898"/>
<circle cx="622.241" cy="263.928" r="13.109" fill="#FFE898"/>
<circle cx="622.241" cy="443.084" r="13.109" fill="#FFE898"/>
<circle cx="622.241" cy="48.9403" r="13.109" fill="#FFE898"/>
<circle cx="622.241" cy="228.097" r="13.109" fill="#FFE898"/>
<circle cx="622.241" cy="586.41" r="13.109" fill="#FFE898"/>
<circle cx="622.241" cy="550.578" r="13.109" fill="#FFE898"/>
<circle cx="658.072" cy="156.434" r="13.109" fill="#FFE898"/>
<circle cx="658.072" cy="514.747" r="13.109" fill="#FFE898"/>
<circle cx="658.072" cy="299.759" r="13.109" fill="#FFE898"/>
<circle cx="658.072" cy="478.916" r="13.109" fill="#FFE898"/>
<circle cx="658.072" cy="658.072" r="13.109" fill="#FFE898"/>
<circle cx="658.072" cy="84.7715" r="13.109" fill="#FFE898"/>
<circle cx="658.072" cy="48.9403" r="13.109" fill="#FFE898"/>
<circle cx="658.072" cy="228.097" r="13.109" fill="#FFE898"/>
<circle cx="658.072" cy="586.41" r="13.109" fill="#FFE898"/>
<circle cx="658.072" cy="371.422" r="13.109" fill="#FFE898"/>
<circle cx="837.228" cy="514.747" r="13.109" fill="#FFE898"/>
<circle cx="693.903" cy="120.603" r="13.109" fill="#FFE898"/>
<circle cx="693.903" cy="299.759" r="13.109" fill="#FFE898"/>
<circle cx="693.903" cy="478.916" r="13.109" fill="#FFE898"/>
<circle cx="837.228" cy="263.928" r="13.109" fill="#FFE898"/>
<circle cx="693.903" cy="443.084" r="13.109" fill="#FFE898"/>
<circle cx="837.228" cy="443.084" r="13.109" fill="#FFE898"/>
<circle cx="837.228" cy="407.253" r="13.109" fill="#FFE898"/>
<circle cx="873.06" cy="335.591" r="13.109" fill="#FFE898"/>
<circle cx="729.735" cy="514.747" r="13.109" fill="#FFE898"/>
<circle cx="729.735" cy="693.903" r="13.109" fill="#FFE898"/>
<circle cx="729.735" cy="120.603" r="13.109" fill="#FFE898"/>
<circle cx="729.735" cy="84.7715" r="13.109" fill="#FFE898"/>
<circle cx="729.735" cy="263.928" r="13.109" fill="#FFE898"/>
<circle cx="729.735" cy="228.097" r="13.109" fill="#FFE898"/>
<circle cx="729.735" cy="586.41" r="13.109" fill="#FFE898"/>
<circle cx="729.735" cy="192.265" r="13.109" fill="#FFE898"/>
<circle cx="729.735" cy="371.422" r="13.109" fill="#FFE898"/>
<circle cx="873.06" cy="371.422" r="13.109" fill="#FFE898"/>
<circle cx="729.735" cy="550.578" r="13.109" fill="#FFE898"/>
<circle cx="765.566" cy="693.903" r="13.109" fill="#FFE898"/>
<circle cx="765.566" cy="120.603" r="13.109" fill="#FFE898"/>
<circle cx="765.566" cy="263.928" r="13.109" fill="#FFE898"/>
<circle cx="765.566" cy="443.084" r="13.109" fill="#FFE898"/>
<circle cx="908.891" cy="443.084" r="13.109" fill="#FFE898"/>
<circle cx="765.566" cy="622.241" r="13.109" fill="#FFE898"/>
<circle cx="765.566" cy="586.41" r="13.109" fill="#FFE898"/>
<circle cx="765.566" cy="192.265" r="13.109" fill="#FFE898"/>
<circle cx="801.397" cy="156.434" r="13.109" fill="#FFE898"/>
<circle cx="801.397" cy="693.903" r="13.109" fill="#FFE898"/>
<circle cx="801.397" cy="550.578" r="13.109" fill="#FFE898"/>
<circle cx="120.603" cy="192.265" r="13.109" fill="#FFCBCB"/>
<circle cx="156.434" cy="156.434" r="13.109" fill="#FFCBCB"/>
<circle cx="192.265" cy="299.759" r="13.109" fill="#FFCBCB"/>
<circle cx="228.097" cy="48.9403" r="13.109" fill="#FFCBCB"/>
<circle cx="228.097" cy="228.097" r="13.109" fill="#FFCBCB"/>
<circle cx="263.928" cy="335.591" r="13.109" fill="#FFCBCB"/>
<circle cx="371.422" cy="120.603" r="13.109" fill="#FFCBCB"/>
<circle cx="407.253" cy="407.253" r="13.109" fill="#FFCBCB"/>
<circle cx="407.253" cy="192.265" r="13.109" fill="#FFCBCB"/>
<circle cx="407.253" cy="371.422" r="13.109" fill="#FFCBCB"/>
<circle cx="407.253" cy="550.578" r="13.109" fill="#FFCBCB"/>
<circle cx="478.916" cy="13.109" r="13.109" fill="#FFCBCB"/>
<circle cx="514.747" cy="443.084" r="13.109" fill="#FFCBCB"/>
<circle cx="514.747" cy="48.9403" r="13.109" fill="#FFCBCB"/>
<circle cx="514.747" cy="550.578" r="13.109" fill="#FFCBCB"/>
<circle cx="550.578" cy="335.591" r="13.109" fill="#FFCBCB"/>
<circle cx="550.578" cy="120.603" r="13.109" fill="#FFCBCB"/>
<circle cx="550.578" cy="371.422" r="13.109" fill="#FFCBCB"/>
<circle cx="586.41" cy="514.747" r="13.109" fill="#FFCBCB"/>
<circle cx="586.41" cy="443.084" r="13.109" fill="#FFCBCB"/>
<circle cx="586.41" cy="622.241" r="13.109" fill="#FFCBCB"/>
<circle cx="586.41" cy="13.109" r="13.109" fill="#FFCBCB"/>
<circle cx="622.241" cy="156.434" r="13.109" fill="#FFCBCB"/>
<circle cx="658.072" cy="120.603" r="13.109" fill="#FFCBCB"/>
<circle cx="693.903" cy="693.903" r="13.109" fill="#FFCBCB"/>
<circle cx="693.903" cy="622.241" r="13.109" fill="#FFCBCB"/>
<circle cx="693.903" cy="228.097" r="13.109" fill="#FFCBCB"/>
<circle cx="693.903" cy="371.422" r="13.109" fill="#FFCBCB"/>
<circle cx="837.228" cy="371.422" r="13.109" fill="#FFCBCB"/>
<circle cx="873.06" cy="478.916" r="13.109" fill="#FFCBCB"/>
<circle cx="765.566" cy="729.734" r="13.109" fill="#FFCBCB"/>
<circle cx="765.566" cy="228.097" r="13.109" fill="#FFCBCB"/>
<circle cx="765.566" cy="407.253" r="13.109" fill="#FFCBCB"/>
<circle cx="908.891" cy="407.253" r="13.109" fill="#FFCBCB"/>
<circle cx="908.891" cy="371.422" r="13.109" fill="#FFCBCB"/>
<circle cx="801.397" cy="335.591" r="13.109" fill="#FFCBCB"/>
<circle cx="801.397" cy="299.759" r="13.109" fill="#FFCBCB"/>
<circle cx="801.397" cy="478.916" r="13.109" fill="#FFCBCB"/>
<circle cx="801.397" cy="622.241" r="13.109" fill="#FFCBCB"/>
<circle cx="84.7716" cy="228.097" r="13.109" fill="#FFCBCB"/>
<circle cx="156.434" cy="263.928" r="13.109" fill="#FFCBCB"/>
<circle cx="228.097" cy="335.591" r="13.109" fill="#FFCBCB"/>
<circle cx="228.097" cy="300.109" r="13.109" fill="#FFCBCB"/>
<circle cx="263.928" cy="120.603" r="13.109" fill="#FFCBCB"/>
<circle cx="263.928" cy="228.097" r="13.109" fill="#FFCBCB"/>
<circle cx="299.759" cy="263.928" r="13.109" fill="#FFCBCB"/>
<circle cx="299.759" cy="192.265" r="13.109" fill="#FFCBCB"/>
<circle cx="335.59" cy="156.434" r="13.109" fill="#FFCBCB"/>
<circle cx="371.422" cy="335.591" r="13.109" fill="#FFCBCB"/>
<circle cx="371.422" cy="443.084" r="13.109" fill="#FFCBCB"/>
<circle cx="371.422" cy="228.097" r="13.109" fill="#FFCBCB"/>
<circle cx="371.422" cy="407.253" r="13.109" fill="#FFCBCB"/>
<circle cx="407.253" cy="120.603" r="13.109" fill="#FFCBCB"/>
<circle cx="407.253" cy="299.759" r="13.109" fill="#FFCBCB"/>
<circle cx="478.916" cy="478.916" r="13.109" fill="#FFCBCB"/>
<circle cx="478.916" cy="263.928" r="13.109" fill="#FFCBCB"/>
<circle cx="478.916" cy="443.084" r="13.109" fill="#FFCBCB"/>
<circle cx="514.747" cy="299.759" r="13.109" fill="#FFCBCB"/>
<circle cx="514.747" cy="407.253" r="13.109" fill="#FFCBCB"/>
<circle cx="514.747" cy="13.109" r="13.109" fill="#FFCBCB"/>
<circle cx="550.578" cy="156.434" r="13.109" fill="#FFCBCB"/>
<circle cx="550.578" cy="299.759" r="13.109" fill="#FFCBCB"/>
<circle cx="550.578" cy="478.916" r="13.109" fill="#FFCBCB"/>
<circle cx="550.578" cy="192.265" r="13.109" fill="#FFCBCB"/>
<circle cx="586.41" cy="48.9403" r="13.109" fill="#FFCBCB"/>
<circle cx="586.41" cy="586.41" r="13.109" fill="#FFCBCB"/>
<circle cx="622.241" cy="335.591" r="13.109" fill="#FFCBCB"/>
<circle cx="622.241" cy="514.747" r="13.109" fill="#FFCBCB"/>
<circle cx="622.241" cy="622.241" r="13.109" fill="#FFCBCB"/>
<circle cx="658.072" cy="335.591" r="13.109" fill="#FFCBCB"/>
<circle cx="658.072" cy="407.253" r="13.109" fill="#FFCBCB"/>
<circle cx="837.228" cy="335.591" r="13.109" fill="#FFCBCB"/>
<circle cx="693.903" cy="658.072" r="13.109" fill="#FFCBCB"/>
<circle cx="693.903" cy="84.7715" r="13.109" fill="#FFCBCB"/>
<circle cx="693.903" cy="263.928" r="13.109" fill="#FFCBCB"/>
<circle cx="693.903" cy="407.253" r="13.109" fill="#FFCBCB"/>
<circle cx="693.903" cy="192.265" r="13.109" fill="#FFCBCB"/>
<circle cx="693.903" cy="550.578" r="13.109" fill="#FFCBCB"/>
<circle cx="729.734" cy="729.734" r="13.109" fill="#FFCBCB"/>
<circle cx="729.734" cy="299.759" r="13.109" fill="#FFCBCB"/>
<circle cx="873.06" cy="299.759" r="13.109" fill="#FFCBCB"/>
<circle cx="729.734" cy="478.916" r="13.109" fill="#FFCBCB"/>
<circle cx="873.06" cy="443.084" r="13.109" fill="#FFCBCB"/>
<circle cx="765.566" cy="156.434" r="13.109" fill="#FFCBCB"/>
<circle cx="765.566" cy="335.591" r="13.109" fill="#FFCBCB"/>
<circle cx="765.566" cy="658.072" r="13.109" fill="#FFCBCB"/>
<circle cx="801.397" cy="514.747" r="13.109" fill="#FFCBCB"/>
<circle cx="801.397" cy="263.928" r="13.109" fill="#FFCBCB"/>
<circle cx="801.397" cy="407.253" r="13.109" fill="#FFCBCB"/>
<circle cx="13.109" cy="156.434" r="13.109" fill="#FFCBCB"/>
<circle cx="48.9403" cy="120.603" r="13.109" fill="#FFCBCB"/>
<circle cx="48.9403" cy="228.097" r="13.109" fill="#FFCBCB"/>
<circle cx="84.7716" cy="156.434" r="13.109" fill="#FFCBCB"/>
<circle cx="84.7716" cy="299.759" r="13.109" fill="#FFCBCB"/>
<circle cx="120.603" cy="156.434" r="13.109" fill="#FFCBCB"/>
<circle cx="120.603" cy="228.097" r="13.109" fill="#FFCBCB"/>
<circle cx="156.434" cy="84.7715" r="13.109" fill="#FFCBCB"/>
<circle cx="156.434" cy="228.097" r="13.109" fill="#FFCBCB"/>
<circle cx="192.265" cy="120.603" r="13.109" fill="#FFCBCB"/>
<circle cx="192.265" cy="48.9403" r="13.109" fill="#FFCBCB"/>
<circle cx="192.265" cy="192.265" r="13.109" fill="#FFCBCB"/>
<circle cx="228.097" cy="84.7715" r="13.109" fill="#FFCBCB"/>
<circle cx="228.097" cy="371.422" r="13.109" fill="#FFCBCB"/>
<circle cx="299.759" cy="156.434" r="13.109" fill="#FFCBCB"/>
<circle cx="299.759" cy="84.7715" r="13.109" fill="#FFCBCB"/>
<circle cx="299.759" cy="443.084" r="13.109" fill="#FFCBCB"/>
<circle cx="299.759" cy="228.097" r="13.109" fill="#FFCBCB"/>
<circle cx="299.759" cy="407.253" r="13.109" fill="#FFCBCB"/>
<circle cx="299.759" cy="371.422" r="13.109" fill="#FFCBCB"/>
<circle cx="335.59" cy="335.591" r="13.109" fill="#FFCBCB"/>
<circle cx="335.59" cy="120.603" r="13.109" fill="#FFCBCB"/>
<circle cx="335.59" cy="228.097" r="13.109" fill="#FFCBCB"/>
<circle cx="371.422" cy="263.928" r="13.109" fill="#FFCBCB"/>
<circle cx="407.253" cy="514.747" r="13.109" fill="#FFCBCB"/>
<circle cx="407.253" cy="228.097" r="13.109" fill="#FFCBCB"/>
<circle cx="443.084" cy="443.084" r="13.109" fill="#FFCBCB"/>
<circle cx="443.084" cy="371.422" r="13.109" fill="#FFCBCB"/>
<circle cx="443.084" cy="550.578" r="13.109" fill="#FFCBCB"/>
<circle cx="478.916" cy="335.591" r="13.109" fill="#FFCBCB"/>
<circle cx="478.916" cy="514.747" r="13.109" fill="#FFCBCB"/>
<circle cx="478.916" cy="192.265" r="13.109" fill="#FFCBCB"/>
<circle cx="514.747" cy="120.603" r="13.109" fill="#FFCBCB"/>
<circle cx="514.747" cy="192.265" r="13.109" fill="#FFCBCB"/>
<circle cx="550.578" cy="263.928" r="13.109" fill="#FFCBCB"/>
<circle cx="586.41" cy="335.591" r="13.109" fill="#FFCBCB"/>
<circle cx="586.41" cy="120.603" r="13.109" fill="#FFCBCB"/>
<circle cx="586.41" cy="550.578" r="13.109" fill="#FFCBCB"/>
<circle cx="622.241" cy="120.603" r="13.109" fill="#FFCBCB"/>
<circle cx="622.241" cy="299.759" r="13.109" fill="#FFCBCB"/>
<circle cx="622.241" cy="478.916" r="13.109" fill="#FFCBCB"/>
<circle cx="622.241" cy="407.253" r="13.109" fill="#FFCBCB"/>
<circle cx="622.241" cy="192.265" r="13.109" fill="#FFCBCB"/>
<circle cx="658.072" cy="263.928" r="13.109" fill="#FFCBCB"/>
<circle cx="658.072" cy="550.578" r="13.109" fill="#FFCBCB"/>
<circle cx="693.903" cy="156.434" r="13.109" fill="#FFCBCB"/>
<circle cx="693.903" cy="514.747" r="13.109" fill="#FFCBCB"/>
<circle cx="729.734" cy="443.084" r="13.109" fill="#FFCBCB"/>
<circle cx="765.566" cy="478.916" r="13.109" fill="#FFCBCB"/>
<circle cx="765.566" cy="371.422" r="13.109" fill="#FFCBCB"/>
<circle cx="478.916" cy="371.422" r="13.109" fill="#79F8AB"/>
<circle cx="228.097" cy="156.434" r="13.109" fill="#FEAEAE"/>
<circle cx="514.747" cy="84.7715" r="13.109" fill="#FCEEA3"/>
<circle cx="729.734" cy="622.241" r="13.109" fill="#FCEEA3"/>
<circle cx="48.9403" cy="156.434" r="13.109" fill="#A0F4FF"/>
<circle cx="48.9403" cy="192.265" r="13.109" fill="#A0F4FF"/>
<circle cx="84.7716" cy="263.928" r="13.109" fill="#A0F4FF"/>
<circle cx="84.7716" cy="192.265" r="13.109" fill="#A0F4FF"/>
<circle cx="156.434" cy="120.603" r="13.109" fill="#A0F4FF"/>
<circle cx="192.266" cy="156.434" r="13.109" fill="#A0F4FF"/>
<circle cx="192.266" cy="228.097" r="13.109" fill="#A0F4FF"/>
<circle cx="263.928" cy="263.928" r="13.109" fill="#A0F4FF"/>
<circle cx="263.928" cy="192.265" r="13.109" fill="#A0F4FF"/>
<circle cx="299.759" cy="335.591" r="13.109" fill="#A0F4FF"/>
<circle cx="299.759" cy="120.603" r="13.109" fill="#A0F4FF"/>
<circle cx="335.59" cy="299.759" r="13.109" fill="#A0F4FF"/>
<circle cx="335.59" cy="84.7715" r="13.109" fill="#A0F4FF"/>
<circle cx="335.59" cy="371.422" r="13.109" fill="#A0F4FF"/>
<circle cx="371.422" cy="156.434" r="13.109" fill="#A0F4FF"/>
<circle cx="371.422" cy="192.265" r="13.109" fill="#A0F4FF"/>
<circle cx="407.253" cy="335.591" r="13.109" fill="#A0F4FF"/>
<circle cx="407.253" cy="84.7715" r="13.109" fill="#A0F4FF"/>
<circle cx="407.253" cy="443.084" r="13.109" fill="#A0F4FF"/>
<circle cx="443.084" cy="514.747" r="13.109" fill="#A0F4FF"/>
<circle cx="443.084" cy="120.603" r="13.109" fill="#A0F4FF"/>
<circle cx="443.084" cy="299.759" r="13.109" fill="#A0F4FF"/>
<circle cx="443.084" cy="478.916" r="13.109" fill="#A0F4FF"/>
<circle cx="443.084" cy="48.9403" r="13.109" fill="#A0F4FF"/>
<circle cx="478.916" cy="156.434" r="13.109" fill="#A0F4FF"/>
<circle cx="478.916" cy="48.9403" r="13.109" fill="#A0F4FF"/>
<circle cx="478.916" cy="228.097" r="13.109" fill="#A0F4FF"/>
<circle cx="514.747" cy="514.747" r="13.109" fill="#A0F4FF"/>
<circle cx="550.578" cy="84.7715" r="13.109" fill="#A0F4FF"/>
<circle cx="586.41" cy="156.434" r="13.109" fill="#A0F4FF"/>
<circle cx="586.41" cy="299.759" r="13.109" fill="#A0F4FF"/>
<circle cx="586.41" cy="478.916" r="13.109" fill="#A0F4FF"/>
<circle cx="586.41" cy="228.097" r="13.109" fill="#A0F4FF"/>
<circle cx="586.41" cy="407.253" r="13.109" fill="#A0F4FF"/>
<circle cx="622.241" cy="84.7715" r="13.109" fill="#A0F4FF"/>
<circle cx="622.241" cy="13.109" r="13.109" fill="#A0F4FF"/>
<circle cx="622.241" cy="371.422" r="13.109" fill="#A0F4FF"/>
<circle cx="658.072" cy="443.084" r="13.109" fill="#A0F4FF"/>
<circle cx="658.072" cy="622.241" r="13.109" fill="#A0F4FF"/>
<circle cx="658.072" cy="192.265" r="13.109" fill="#A0F4FF"/>
<circle cx="693.903" cy="335.591" r="13.109" fill="#A0F4FF"/>
<circle cx="837.228" cy="299.759" r="13.109" fill="#A0F4FF"/>
<circle cx="837.228" cy="478.916" r="13.109" fill="#A0F4FF"/>
<circle cx="693.903" cy="586.41" r="13.109" fill="#A0F4FF"/>
<circle cx="729.734" cy="156.434" r="13.109" fill="#A0F4FF"/>
<circle cx="729.734" cy="335.591" r="13.109" fill="#A0F4FF"/>
<circle cx="729.734" cy="658.072" r="13.109" fill="#A0F4FF"/>
<circle cx="729.734" cy="407.253" r="13.109" fill="#A0F4FF"/>
<circle cx="873.06" cy="407.253" r="13.109" fill="#A0F4FF"/>
<circle cx="765.566" cy="514.747" r="13.109" fill="#A0F4FF"/>
<circle cx="765.566" cy="299.759" r="13.109" fill="#A0F4FF"/>
<circle cx="765.566" cy="550.578" r="13.109" fill="#A0F4FF"/>
<circle cx="801.397" cy="120.603" r="13.109" fill="#A0F4FF"/>
<circle cx="801.397" cy="658.072" r="13.109" fill="#A0F4FF"/>
<circle cx="801.397" cy="443.084" r="13.109" fill="#A0F4FF"/>
<circle cx="801.397" cy="586.41" r="13.109" fill="#A0F4FF"/>
<circle cx="801.397" cy="371.422" r="13.109" fill="#A0F4FF"/>
</svg>
